<svg xmlns="http://www.w3.org/2000/svg" width="320" height="320" viewBox="0 0 320 320">
  <rect width="100%" height="100%" fill="#FFEED6"/>
  <circle cx="160" cy="170" r="85" fill="#F8BFB3" stroke="#111" stroke-width="4"/>
  <polygon points="95,105 130,55 145,120" fill="#F8BFB3" stroke="#111" stroke-width="4"/>
  <polygon points="225,105 190,55 175,120" fill="#F8BFB3" stroke="#111" stroke-width="4"/>
  <polygon points="105,105 130,70 138,108" fill="#FFCDD2"/>
  <polygon points="215,105 190,70 182,108" fill="#FFCDD2"/>
  <circle cx="135" cy="165" r="10" fill="#111"/>
  <circle cx="185" cy="165" r="10" fill="#111"/>
  <line x1="70" y1="185" x2="125" y2="185" stroke="#111" stroke-width="4" stroke-linecap="round"/>
  <line x1="70" y1="200" x2="125" y2="195" stroke="#111" stroke-width="4" stroke-linecap="round"/>
  <line x1="195" y1="185" x2="250" y2="185" stroke="#111" stroke-width="4" stroke-linecap="round"/>
  <line x1="195" y1="195" x2="250" y2="200" stroke="#111" stroke-width="4" stroke-linecap="round"/>
  <path d="M155 175 L165 175 L160 182 Z" fill="#E57373"/>
  <path d="M160 182 q-15 15 -30 0" stroke="#111" stroke-width="4" fill="none" stroke-linecap="round"/>
  <path d="M160 182 q15 15 30 0" stroke="#111" stroke-width="4" fill="none" stroke-linecap="round"/>
  <circle cx="132" cy="130" r="10" fill="#FF6F61"/>
  <circle cx="112" cy="130" r="14" fill="#FF8A80"/>
  <circle cx="152" cy="130" r="14" fill="#FF8A80"/>
</svg>